<svg width="99" height="99" viewBox="0 0 99 99" fill="none" xmlns="http://www.w3.org/2000/svg">
<g id="ico-carrot 1">
<path id="Vector" d="M65.2212 30.2C69.0698 25.2153 70.5969 20.6984 69.9707 16.6073C69.2876 12.1448 66.4216 8.17495 61.182 4.6555C60.6268 4.27877 60.2419 3.69888 60.1104 3.04093C59.9789 2.38299 60.1113 1.69972 60.4791 1.13852C61.2463 -0.0321525 62.8056 -0.348953 63.9614 0.428197C70.2974 4.6852 74.0173 9.8332 74.9356 15.8351C75.2342 17.8168 75.1915 19.835 74.8093 21.8023C76.6742 20.1987 78.6919 18.782 80.8335 17.5725C85.7884 14.8302 91.0156 13.4516 96.4854 13.4492C97.8714 13.4492 98.9975 14.5877 98.9975 15.9885C98.9998 16.3205 98.9366 16.6496 98.8115 16.9571C98.6865 17.2646 98.502 17.5443 98.2686 17.7804C98.0353 18.0165 97.7577 18.2043 97.4517 18.333C97.1457 18.4617 96.8173 18.5287 96.4854 18.5303C91.8695 18.5303 87.4665 19.6936 83.2441 22.03C80.6949 23.4407 78.0343 25.5074 75.2697 28.2299C76.9427 27.9361 78.6478 27.8703 80.3385 28.0343C84.8108 28.4823 88.7238 30.4202 91.9933 33.7862C92.4598 34.2695 92.7179 34.9167 92.7119 35.5884C92.7059 36.2602 92.4363 36.9026 91.9611 37.3775C90.9711 38.3625 89.3797 38.3477 88.4095 37.3453C85.9543 34.8208 83.1278 33.4199 79.8435 33.0883C76.9453 32.7987 73.7872 33.4917 70.3494 35.2193C75.9602 41.882 77.0566 48.5348 74.0619 55.3163C71.5572 60.984 67.0477 65.8276 57.7442 73.9431C39.3847 89.9564 9.44212 103.455 3.54172 97.5571C-2.39828 91.6171 11.338 61.3082 27.475 42.9957C35.6499 33.7145 40.3326 29.3832 45.9261 26.9379C52.418 24.104 58.7961 25.0668 65.2187 30.2049L65.2212 30.2ZM11.7859 77.0567C7.82842 85.9345 6.25432 93.0773 7.1379 93.9609C8.0289 94.8519 15.3549 93.2308 24.4035 89.152C28.337 87.3692 32.1782 85.3891 35.9122 83.2194L29.7025 77.0121C29.4724 76.7823 29.2898 76.5093 29.1652 76.2088C29.0407 75.9084 28.9766 75.5863 28.9766 75.2611C28.9766 74.9358 29.0407 74.6137 29.1652 74.3133C29.2898 74.0128 29.4724 73.7399 29.7025 73.51L29.7965 73.4184C30.2606 72.9544 30.8901 72.6938 31.5463 72.6938C32.2026 72.6938 32.832 72.9544 33.2962 73.4184L40.387 80.5093C45.4781 77.2918 50.3068 73.7624 54.45 70.1489L54.8361 69.8123L45.8692 60.8454C45.4052 60.3813 45.1445 59.7519 45.1445 59.0956C45.1445 58.4393 45.4052 57.8099 45.8692 57.3458L45.9607 57.2517C46.1906 57.0216 46.4636 56.8391 46.764 56.7145C47.0645 56.5899 47.3866 56.5258 47.7118 56.5258C48.0371 56.5258 48.3591 56.5899 48.6596 56.7145C48.96 56.8391 49.233 57.0216 49.4629 57.2517L58.6303 66.4191C64.5777 60.9568 67.7185 57.2195 69.446 53.314C71.9012 47.7551 70.6637 42.5304 64.6173 36.484C58.5659 30.4326 53.3882 29.1679 47.9061 31.5637C45.9533 32.4151 44.0575 33.6179 41.9463 35.3678L51.3711 44.7901C51.6012 45.02 51.7838 45.2929 51.9083 45.5934C52.0329 45.8938 52.097 46.2159 52.097 46.5412C52.097 46.8664 52.0329 47.1885 51.9083 47.4889C51.7838 47.7894 51.6012 48.0624 51.3711 48.2922L51.277 48.3838C50.8129 48.8478 50.1835 49.1084 49.5272 49.1084C48.8709 49.1084 48.2415 48.8478 47.7774 48.3838L38.2041 38.8105C36.187 40.8152 33.9223 43.2779 31.2493 46.3097C29.5774 48.2145 27.9782 50.1818 26.4553 52.2077L35.2044 60.9568C35.6684 61.4209 35.929 62.0503 35.929 62.7066C35.929 63.3629 35.6684 63.9923 35.2044 64.4564L35.1128 64.5505C34.6487 65.0145 34.0193 65.2751 33.363 65.2751C32.7067 65.2751 32.0773 65.0145 31.6132 64.5505L23.4457 56.383C19.9748 61.4311 16.8523 66.7102 14.1001 72.1834L19.0377 77.1235C19.5017 77.5876 19.7623 78.217 19.7623 78.8733C19.7623 79.5296 19.5017 80.159 19.0377 80.6231L18.9461 80.7147C18.482 81.1787 17.8526 81.4394 17.1963 81.4394C16.54 81.4394 15.9106 81.1787 15.4465 80.7147L11.7859 77.0567Z" fill="#1CA909"/>
</g>
</svg>
