<svg width="79" height="106" viewBox="0 0 79 106" fill="none" xmlns="http://www.w3.org/2000/svg">
<g id="ico-checklist2 1" clip-path="url(#clip0_3_30)">
<path id="Vector" d="M51.5969 9.86042H61.7188C62.3735 9.86042 63.0014 10.1201 63.4644 10.5824C63.9274 11.0447 64.1875 11.6717 64.1875 12.3255V17.2558H76.5312C77.186 17.2558 77.8139 17.5155 78.2769 17.9778C78.7399 18.4401 79 19.0671 79 19.7209V103.535C79 104.189 78.7399 104.816 78.2769 105.278C77.8139 105.74 77.186 106 76.5312 106H2.46875C1.814 106 1.18606 105.74 0.72308 105.278C0.2601 104.816 0 104.189 0 103.535V19.7209C0 19.0671 0.2601 18.4401 0.72308 17.9778C1.18606 17.5155 1.814 17.2558 2.46875 17.2558H14.8125V12.3255C14.8125 11.6717 15.0726 11.0447 15.5356 10.5824C15.9986 10.1201 16.6265 9.86042 17.2812 9.86042H27.4031C27.9746 7.07819 29.4904 4.57825 31.6945 2.78301C33.8985 0.987777 36.6557 0.00732422 39.5 0.00732422C42.3443 0.00732422 45.1015 0.987777 47.3055 2.78301C49.5096 4.57825 51.0254 7.07819 51.5969 9.86042ZM46.4866 9.86042C45.9765 8.41701 45.0306 7.16712 43.7793 6.28302C42.528 5.39892 41.0329 4.92415 39.5 4.92415C37.9671 4.92415 36.472 5.39892 35.2207 6.28302C33.9694 7.16712 33.0235 8.41701 32.5134 9.86042H46.4866ZM64.1875 22.186V27.1162C64.1875 27.77 63.9274 28.397 63.4644 28.8593C63.0014 29.3216 62.3735 29.5813 61.7188 29.5813H17.2812C16.6265 29.5813 15.9986 29.3216 15.5356 28.8593C15.0726 28.397 14.8125 27.77 14.8125 27.1162V22.186H4.9375V101.07H74.0625V22.186H64.1875ZM19.75 14.7907V24.6511H59.25V14.7907H19.75ZM14.1385 48.0845L18.607 52.1766L27.2106 44.0516C27.4463 43.8292 27.7235 43.6553 28.0265 43.5399C28.3295 43.4245 28.6523 43.3698 28.9764 43.379C29.3006 43.3881 29.6197 43.461 29.9157 43.5933C30.2117 43.7256 30.4786 43.9148 30.7014 44.1502C30.9241 44.3855 31.0982 44.6624 31.2138 44.9649C31.3294 45.2675 31.3841 45.5898 31.375 45.9134C31.3658 46.2371 31.2929 46.5558 31.1604 46.8514C31.0278 47.1469 30.8383 47.4135 30.6026 47.6359L18.6637 58.9113L10.8008 51.7181C10.3179 51.2761 10.0306 50.6607 10.0022 50.0073C9.97368 49.3538 10.2063 48.7158 10.649 48.2337C11.0916 47.7515 11.7079 47.4646 12.3623 47.4362C13.0167 47.4078 13.6557 47.6401 14.1385 48.082V48.0845ZM14.1385 73.7291L18.607 77.8212L27.2106 69.6962C27.4463 69.4738 27.7235 69.2999 28.0265 69.1845C28.3295 69.0691 28.6523 69.0144 28.9764 69.0236C29.3006 69.0327 29.6197 69.1056 29.9157 69.2379C30.2117 69.3702 30.4786 69.5594 30.7014 69.7948C30.9241 70.0301 31.0982 70.307 31.2138 70.6095C31.3294 70.9121 31.3841 71.2344 31.375 71.5581C31.3658 71.8817 31.2929 72.2004 31.1604 72.496C31.0278 72.7915 30.8383 73.0581 30.6026 73.2805L18.6637 84.5534L10.8032 77.3627C10.3204 76.9207 10.0331 76.3053 10.0046 75.6519C9.97615 74.9984 10.2088 74.3604 10.6514 73.8783C11.094 73.3961 11.7103 73.1092 12.3648 73.0808C13.0192 73.0524 13.6581 73.2847 14.141 73.7267L14.1385 73.7291ZM39.5 49.3023H64.1875C64.8423 49.3023 65.4702 49.562 65.9332 50.0243C66.3961 50.4866 66.6562 51.1136 66.6562 51.7674C66.6562 52.4212 66.3961 53.0482 65.9332 53.5105C65.4702 53.9728 64.8423 54.2325 64.1875 54.2325H39.5C38.8452 54.2325 38.2173 53.9728 37.7543 53.5105C37.2914 53.0482 37.0312 52.4212 37.0312 51.7674C37.0312 51.1136 37.2914 50.4866 37.7543 50.0243C38.2173 49.562 38.8452 49.3023 39.5 49.3023ZM39.5 74.9469H64.1875C64.8423 74.9469 65.4702 75.2066 65.9332 75.6689C66.3961 76.1312 66.6562 76.7582 66.6562 77.412C66.6562 78.0658 66.3961 78.6928 65.9332 79.1551C65.4702 79.6174 64.8423 79.8771 64.1875 79.8771H39.5C38.8452 79.8771 38.2173 79.6174 37.7543 79.1551C37.2914 78.6928 37.0312 78.0658 37.0312 77.412C37.0312 76.7582 37.2914 76.1312 37.7543 75.6689C38.2173 75.2066 38.8452 74.9469 39.5 74.9469Z" fill="#3CAF2D"/>
</g>
<defs>
<clipPath id="clip0_3_30">
<rect width="79" height="106" fill="white"/>
</clipPath>
</defs>
</svg>
