<svg width="97" height="97" viewBox="0 0 97 97" fill="none" xmlns="http://www.w3.org/2000/svg">
<g id="vuesax/outline/weight">
<g id="weight">
<path id="Vector" d="M56.5833 91.948H40.4167C18.4704 91.948 9.09375 82.5713 9.09375 60.625V36.375C9.09375 14.4288 18.4704 5.05212 40.4167 5.05212H56.5833C78.5296 5.05212 87.9062 14.4288 87.9062 36.375V60.625C87.9062 82.5713 78.5296 91.948 56.5833 91.948ZM40.4167 11.1146C21.7846 11.1146 15.1562 17.743 15.1562 36.375V60.625C15.1562 79.2571 21.7846 85.8855 40.4167 85.8855H56.5833C75.2154 85.8855 81.8438 79.2571 81.8438 60.625V36.375C81.8438 17.743 75.2154 11.1146 56.5833 11.1146H40.4167Z" fill="#3CAF2D"/>
<path id="Vector_2" d="M60.9079 50.6825C60.1804 50.6825 59.4529 50.3996 58.8871 49.9146C52.9862 44.6604 44.0137 44.6604 38.1129 49.9146C37.4662 50.5208 36.5771 50.7633 35.6475 50.6421C34.7583 50.5208 33.9904 49.9954 33.5054 49.2275L24.6946 35.0817C23.9267 33.8288 24.1692 32.2121 25.2604 31.2017C38.5171 19.4404 58.4829 19.4404 71.7396 31.2017C72.8308 32.1717 73.0733 33.8288 72.3054 35.0817L63.4946 49.2275C63.0096 49.9954 62.2417 50.4804 61.3525 50.6421C61.1908 50.6421 61.0292 50.6825 60.9079 50.6825ZM48.5 39.8913C52.5417 39.8913 56.5429 41.0229 60.0592 43.2458L65.7175 34.1521C55.4921 26.5538 41.4675 26.5538 31.2421 34.1521L36.9004 43.2458C40.4571 40.9825 44.4583 39.8913 48.5 39.8913Z" fill="#3CAF2D"/>
</g>
</g>
</svg>
